<svg width="128" height="128" viewBox="0 0 128 128" fill="none" xmlns="http://www.w3.org/2000/svg">
<path fill-rule="evenodd" clip-rule="evenodd" d="M80.2694 0.983975C80.1937 1.04428 79.8766 1.5008 79.5647 1.99847C76.2297 7.31996 67.4912 19.0751 64.3321 22.4896C64.1639 22.6715 64.0891 22.5951 62.2608 20.3729C56.9659 13.9371 52.175 7.45276 48.8923 2.27904C47.8913 0.70134 48.1268 0.560121 40.0292 7.5928C29.4294 16.7987 29.6553 16.512 31.8956 17.9146C35.5059 20.1749 39.1754 22.7188 43.3503 25.8557C47.5959 29.0456 53.8117 34.0706 53.812 34.3131C53.8126 34.908 34.9001 53.8136 34.3037 53.8142C34.1177 53.8144 32.542 51.9635 29.612 48.3031C24.7196 42.1911 20.9021 36.8868 17.6788 31.7224C16.7517 30.2371 16.6651 30.1275 16.4756 30.2004C16.3567 30.2461 13.3121 33.5225 11.1898 35.8887C1.80746 46.3492 0.611407 47.9884 1.81158 48.7419C7.47372 52.2969 16.5261 58.994 21.9211 63.6192C22.7214 64.3054 22.8295 64.1259 20.4306 66.0952C13.7581 71.5727 7.05171 76.4957 1.45261 80.0265C1.13663 80.2258 0.866204 80.4516 0.851715 80.5283C0.779448 80.9109 11.0425 92.7255 15.7595 97.6899C16.6504 98.6276 16.5736 98.6535 17.5259 97.0935C21.0645 91.2967 26.5806 83.7721 32.7625 76.3091C34.5594 74.1399 33.7417 73.5863 44.3218 84.1366C54.8198 94.6049 54.2968 93.8607 52.3147 95.5101C44.923 101.661 37.7549 106.949 31.7345 110.691C30.8219 111.258 30.0518 111.783 30.0232 111.858C29.8361 112.347 47.4619 127.82 47.9793 127.621C48.0501 127.594 48.3824 127.137 48.718 126.607C51.869 121.624 55.8823 116.07 60.5322 110.258C62.2366 108.127 64.0702 105.905 64.1794 105.837C64.3073 105.758 64.3894 105.846 65.9391 107.72C71.0921 113.952 76.5439 121.319 79.5624 126.13C79.8637 126.61 80.0568 126.83 80.1765 126.83C80.8347 126.83 97.9268 111.767 97.7602 111.335C97.7311 111.259 97.1024 110.817 96.3633 110.353C90.3441 106.574 83.3376 101.416 76.3407 95.6112C74.3607 93.9688 74.4633 94.131 75.0205 93.5233C80.4861 87.563 93.5991 74.5505 94.1406 74.5498C94.23 74.5497 94.9874 75.3865 95.9602 76.5599C101.816 83.6237 107.005 90.649 110.524 96.2801C111.408 97.6934 111.493 97.7995 111.661 97.6973C112.092 97.4365 118.686 90.1412 122.107 86.1404C127.938 79.3213 127.66 80.3461 124.284 78.1086C118.634 74.3653 110.784 68.4675 106.443 64.7044C105.721 64.0788 105.632 64.2535 107.436 62.7526C113.78 57.475 120.467 52.5211 126.125 48.9065C127.658 47.9274 127.75 47.8395 127.549 47.5408C127.183 46.995 123.387 42.4737 120.788 39.4874C117.89 36.1567 112.34 30.0953 112.029 29.9223C111.826 29.8086 111.784 29.862 110.57 31.8067C107.509 36.7109 103.443 42.3807 98.9137 48.0627C96.6764 50.8693 94.2179 53.8423 94.1343 53.8424C93.5941 53.8429 74.5353 34.8185 74.5348 34.2781C74.5345 34.0467 81.455 28.4603 85.7013 25.2642C89.5559 22.3629 95.0215 18.6329 97.7047 17.0727C98.5493 16.5815 98.5613 16.4803 97.8528 15.8267C89.7249 8.32854 80.6576 0.674587 80.2694 0.983975ZM66.2178 25.0935C68.1378 27.3223 71.6061 31.2245 73.3439 33.1113C74.4979 34.3642 74.5737 34.1262 72.4326 35.9688C70.3383 37.7712 67.0505 40.6868 65.4253 42.1831C64.1008 43.4025 64.2835 43.3827 63.2289 42.4214C61.4919 40.8378 57.4231 37.2461 55.7775 35.8437C53.7361 34.104 53.7145 34.5717 55.9499 32.112C57.8251 30.0488 61.2408 26.1619 63.0683 24.0116C64.2857 22.5794 63.9537 22.4653 66.2178 25.0935ZM66.7383 45.6853C69.767 48.5013 79.5415 58.2339 82.2536 61.134C83.3687 62.3264 84.4638 63.4932 84.6871 63.7269L85.0931 64.1518L84.2872 65.0318C79.978 69.7372 71.8422 77.9285 66.5989 82.8408C65.3182 84.0406 64.2809 85.0503 64.2937 85.0845C64.3482 85.2313 69.6892 89.9901 72.5366 92.4291C74.6867 94.2706 74.6799 93.8456 72.5955 96.1387C70.5535 98.3851 67.6654 101.666 65.7838 103.877C64.3684 105.54 64.2997 105.612 64.1844 105.541C64.1448 105.516 63.2676 104.513 62.235 103.311C60.3318 101.095 56.8638 97.194 55.1117 95.2979C53.937 94.0267 53.9342 94.1655 55.1568 93.1267C57.969 90.7372 64.1811 85.1904 64.181 85.0692C64.181 85.0371 62.9682 83.8768 61.4862 82.491C60.0041 81.1052 56.5462 77.7346 53.8021 75.0009C49.2669 70.4829 47.6296 68.8028 44.3992 65.3526L43.3236 64.2037L44.4872 62.962C50.5155 56.5294 56.142 50.89 62.7815 44.6254C64.3631 43.1331 63.8439 42.994 66.7383 45.6853ZM35.925 55.9149C37.6123 57.8726 40.3992 61.013 42.1694 62.9515C43.4468 64.3502 43.3922 64.1439 42.6857 64.9035C41.0888 66.6203 36.8521 71.4186 35.092 73.5036C34.2624 74.4864 34.3351 74.4673 33.6859 73.8738C30.9239 71.3485 27.0409 67.9183 24.3665 65.6411C22.4809 64.0354 22.3996 64.4986 24.9513 62.3119C27.2718 60.3232 31.2039 56.8307 33.0203 55.145C34.4126 53.8529 34.0694 53.7618 35.925 55.9149ZM95.2792 54.9861C97.1224 56.6797 101.058 60.1599 103.368 62.1385C104.604 63.197 105.603 64.1126 105.588 64.173C105.572 64.2334 104.522 65.1747 103.254 66.2648C100.828 68.3507 98.0032 70.8544 95.6599 72.9965C93.9555 74.5545 94.3986 74.6572 92.2959 72.2177C90.397 70.0147 88.0772 67.403 86.266 65.4294C85.6526 64.7609 85.1616 64.1841 85.1747 64.1474C85.1879 64.1107 86.0382 63.1516 87.0641 62.0161C89.1241 59.7361 91.8966 56.5777 93.1991 55.0272C94.2135 53.8195 94.0139 53.8234 95.2792 54.9861Z" fill="black"/>
</svg>
